<?xml version="1.0" encoding="utf-8"?>
<!-- Svg Vector Icons : http://www.onlinewebfonts.com/icon -->
<!DOCTYPE svg PUBLIC "-//W3C//DTD SVG 1.1//EN" "http://www.w3.org/Graphics/SVG/1.1/DTD/svg11.dtd">
<svg version="1.1" xmlns="http://www.w3.org/2000/svg" xmlns:xlink="http://www.w3.org/1999/xlink" x="0px" y="0px" viewBox="0 0 1000 1000" enable-background="new 0 0 1000 1000" xml:space="preserve">
<metadata> Svg Vector Icons : http://www.onlinewebfonts.com/icon </metadata>
<g><path d="M484.6,864.1c63.5,0,114.9-52.7,114.9-117.7c0-39.5-19-74.5-48.2-95.8v-79.4h137.5v-60H551.3V415h137.5v-60H551.3V253.9h137.5v-60H551.3V79.2c0-92.3-137.5-92.3-137.5,0v574.3c-26.9,21.5-44.2,55.1-44.2,92.8C369.7,811.4,421.1,864.1,484.6,864.1z M619.2,777.9c-5.2,23.2-15.7,42.8-31.3,60.6c20.9,7.1,43.5,12.5,66.1,12.5c50.5,0,100.9-35.6,153.1-35.6c52.2,0,104.4,35.6,154.9,35.6v-69.5c-50.5,0-102.7-35.6-154.9-35.6c-52.2,0-102.7,35.6-153.1,35.6C641.8,781.5,631.4,781.5,619.2,777.9z M807.1,883.1c-52.2,0-100.9,35.6-153.1,35.6c-52.2,0-100.9-35.6-153.1-35.6c-52.2,0-104.4,35.6-156.6,35.6c-48.7,0-100.9-35.6-153.1-35.6c-52.2,0-100.9,35.6-153.1,35.6V990c52.2,0,100.9-35.6,153.1-35.6c52.2,0,104.4,35.6,153.1,35.6c52.2,0,104.4-35.6,156.6-35.6c52.2,0,100.9,35.6,153.1,35.6c52.2,0,100.9-35.6,153.1-35.6c52.2,0,104.4,35.6,156.6,35.6v-71.3C911.5,918.7,859.3,883.1,807.1,883.1z M344.3,851c13.9,0,29.6-1.8,43.5-7.1c-15.7-16-27.8-37.4-34.8-62.4h-8.7c-50.5,0-100.9-35.6-154.9-35.6c-50.5,0-100.9,35.6-153.1,35.6v71.3c52.2,0,102.7-37.4,153.1-37.4C241.6,815.3,293.8,851,344.3,851z"/></g>
</svg>